<svg xmlns="http://www.w3.org/2000/svg" xmlns:xlink="http://www.w3.org/1999/xlink" width="1080" zoomAndPan="magnify" viewBox="0 0 810 809.999993" height="1080" preserveAspectRatio="xMidYMid meet" version="1.0"><rect x="-81" width="972" fill="#ffffff" y="-80.999999" height="971.999992" fill-opacity="1"/><path stroke-linecap="butt" transform="matrix(27.931033, 0, 0, 27.931033, 0.0000035, 0.00002)" fill-opacity="1" fill="#ffffff" fill-rule="nonzero" stroke-linejoin="miter" d="M 2.000043 2.500019 L 8.999986 2.500019 M 11.000029 2.500019 L 11.999981 2.500019 M 12.999933 2.500019 L 17.00002 2.500019 M 20.000015 2.500019 L 26.999958 2.500019 M 2.000043 3.499971 L 2.999995 3.499971 M 8.000034 3.499971 L 8.999986 3.499971 M 9.999938 3.499971 L 11.999981 3.499971 M 20.000015 3.499971 L 20.999967 3.499971 M 26.000006 3.499971 L 26.999958 3.499971 M 2.000043 4.500062 L 2.999995 4.500062 M 3.999947 4.500062 L 6.999942 4.500062 M 8.000034 4.500062 L 8.999986 4.500062 M 9.999938 4.500062 L 12.999933 4.500062 M 14.000025 4.500062 L 14.999976 4.500062 M 16.000068 4.500062 L 17.00002 4.500062 M 17.999972 4.500062 L 19.000063 4.500062 M 20.000015 4.500062 L 20.999967 4.500062 M 22.000059 4.500062 L 25.000054 4.500062 M 26.000006 4.500062 L 26.999958 4.500062 M 2.000043 5.500014 L 2.999995 5.500014 M 3.999947 5.500014 L 6.999942 5.500014 M 8.000034 5.500014 L 8.999986 5.500014 M 9.999938 5.500014 L 11.000029 5.500014 M 14.999976 5.500014 L 16.000068 5.500014 M 17.00002 5.500014 L 19.000063 5.500014 M 20.000015 5.500014 L 20.999967 5.500014 M 22.000059 5.500014 L 25.000054 5.500014 M 26.000006 5.500014 L 26.999958 5.500014 M 2.000043 6.499966 L 2.999995 6.499966 M 3.999947 6.499966 L 6.999942 6.499966 M 8.000034 6.499966 L 8.999986 6.499966 M 11.000029 6.499966 L 14.000025 6.499966 M 14.999976 6.499966 L 16.000068 6.499966 M 20.000015 6.499966 L 20.999967 6.499966 M 22.000059 6.499966 L 25.000054 6.499966 M 26.000006 6.499966 L 26.999958 6.499966 M 2.000043 7.500057 L 2.999995 7.500057 M 8.000034 7.500057 L 8.999986 7.500057 M 11.000029 7.500057 L 14.999976 7.500057 M 17.999972 7.500057 L 19.000063 7.500057 M 20.000015 7.500057 L 20.999967 7.500057 M 26.000006 7.500057 L 26.999958 7.500057 M 2.000043 8.500009 L 8.999986 8.500009 M 9.999938 8.500009 L 11.000029 8.500009 M 11.999981 8.500009 L 12.999933 8.500009 M 14.000025 8.500009 L 14.999976 8.500009 M 16.000068 8.500009 L 17.00002 8.500009 M 17.999972 8.500009 L 19.000063 8.500009 M 20.000015 8.500009 L 26.999958 8.500009 M 9.999938 9.499961 L 11.999981 9.499961 M 12.999933 9.499961 L 14.000025 9.499961 M 16.000068 9.499961 L 17.00002 9.499961 M 2.000043 10.500053 L 2.999995 10.500053 M 8.000034 10.500053 L 8.999986 10.500053 M 9.999938 10.500053 L 11.999981 10.500053 M 12.999933 10.500053 L 14.000025 10.500053 M 14.999976 10.500053 L 16.000068 10.500053 M 17.00002 10.500053 L 17.999972 10.500053 M 19.000063 10.500053 L 20.999967 10.500053 M 23.000011 10.500053 L 26.000006 10.500053 M 2.000043 11.500005 L 5.99999 11.500005 M 8.999986 11.500005 L 9.999938 11.500005 M 11.999981 11.500005 L 14.000025 11.500005 M 14.999976 11.500005 L 17.999972 11.500005 M 19.000063 11.500005 L 20.000015 11.500005 M 20.999967 11.500005 L 26.000006 11.500005 M 5.99999 12.499956 L 6.999942 12.499956 M 8.000034 12.499956 L 9.999938 12.499956 M 11.000029 12.499956 L 11.999981 12.499956 M 14.000025 12.499956 L 17.999972 12.499956 M 19.000063 12.499956 L 23.999962 12.499956 M 25.000054 12.499956 L 26.999958 12.499956 M 2.000043 13.500048 L 2.999995 13.500048 M 3.999947 13.500048 L 5.000039 13.500048 M 6.999942 13.500048 L 8.000034 13.500048 M 8.999986 13.500048 L 11.000029 13.500048 M 11.999981 13.500048 L 12.999933 13.500048 M 14.000025 13.500048 L 14.999976 13.500048 M 16.000068 13.500048 L 17.00002 13.500048 M 17.999972 13.500048 L 20.000015 13.500048 M 20.999967 13.500048 L 22.000059 13.500048 M 23.000011 13.500048 L 23.999962 13.500048 M 26.000006 13.500048 L 26.999958 13.500048 M 2.999995 14.5 L 5.000039 14.5 M 5.99999 14.5 L 6.999942 14.5 M 8.000034 14.5 L 8.999986 14.5 M 11.000029 14.5 L 12.999933 14.5 M 14.000025 14.5 L 14.999976 14.5 M 17.00002 14.5 L 17.999972 14.5 M 20.000015 14.5 L 20.999967 14.5 M 26.000006 14.5 L 26.999958 14.5 M 2.000043 15.499952 L 2.999995 15.499952 M 3.999947 15.499952 L 5.000039 15.499952 M 8.999986 15.499952 L 11.000029 15.499952 M 11.999981 15.499952 L 12.999933 15.499952 M 16.000068 15.499952 L 20.000015 15.499952 M 20.999967 15.499952 L 22.000059 15.499952 M 25.000054 15.499952 L 26.000006 15.499952 M 2.000043 16.500043 L 2.999995 16.500043 M 3.999947 16.500043 L 6.999942 16.500043 M 8.000034 16.500043 L 8.999986 16.500043 M 11.999981 16.500043 L 14.999976 16.500043 M 17.00002 16.500043 L 23.999962 16.500043 M 25.000054 16.500043 L 26.999958 16.500043 M 2.000043 17.499995 L 2.999995 17.499995 M 5.000039 17.499995 L 6.999942 17.499995 M 8.999986 17.499995 L 11.999981 17.499995 M 12.999933 17.499995 L 14.000025 17.499995 M 16.000068 17.499995 L 17.00002 17.499995 M 17.999972 17.499995 L 20.000015 17.499995 M 20.999967 17.499995 L 22.000059 17.499995 M 23.000011 17.499995 L 25.000054 17.499995 M 26.000006 17.499995 L 26.999958 17.499995 M 2.000043 18.499947 L 2.999995 18.499947 M 5.99999 18.499947 L 6.999942 18.499947 M 8.000034 18.499947 L 9.999938 18.499947 M 11.000029 18.499947 L 14.000025 18.499947 M 14.999976 18.499947 L 23.000011 18.499947 M 23.999962 18.499947 L 25.000054 18.499947 M 9.999938 19.500039 L 11.999981 19.500039 M 14.000025 19.500039 L 14.999976 19.500039 M 16.000068 19.500039 L 17.00002 19.500039 M 17.999972 19.500039 L 19.000063 19.500039 M 22.000059 19.500039 L 23.000011 19.500039 M 2.000043 20.499991 L 8.999986 20.499991 M 11.000029 20.499991 L 14.000025 20.499991 M 14.999976 20.499991 L 16.000068 20.499991 M 17.999972 20.499991 L 19.000063 20.499991 M 20.000015 20.499991 L 20.999967 20.499991 M 22.000059 20.499991 L 23.000011 20.499991 M 26.000006 20.499991 L 26.999958 20.499991 M 2.000043 21.499942 L 2.999995 21.499942 M 8.000034 21.499942 L 8.999986 21.499942 M 11.999981 21.499942 L 12.999933 21.499942 M 14.000025 21.499942 L 14.999976 21.499942 M 17.00002 21.499942 L 19.000063 21.499942 M 22.000059 21.499942 L 23.000011 21.499942 M 25.000054 21.499942 L 26.000006 21.499942 M 2.000043 22.500034 L 2.999995 22.500034 M 3.999947 22.500034 L 6.999942 22.500034 M 8.000034 22.500034 L 8.999986 22.500034 M 11.999981 22.500034 L 12.999933 22.500034 M 14.000025 22.500034 L 16.000068 22.500034 M 17.00002 22.500034 L 23.000011 22.500034 M 23.999962 22.500034 L 26.999958 22.500034 M 2.000043 23.499986 L 2.999995 23.499986 M 3.999947 23.499986 L 6.999942 23.499986 M 8.000034 23.499986 L 8.999986 23.499986 M 11.000029 23.499986 L 12.999933 23.499986 M 14.999976 23.499986 L 17.00002 23.499986 M 17.999972 23.499986 L 19.000063 23.499986 M 20.000015 23.499986 L 20.999967 23.499986 M 25.000054 23.499986 L 26.999958 23.499986 M 2.000043 24.499938 L 2.999995 24.499938 M 3.999947 24.499938 L 6.999942 24.499938 M 8.000034 24.499938 L 8.999986 24.499938 M 11.999981 24.499938 L 17.00002 24.499938 M 23.000011 24.499938 L 25.000054 24.499938 M 26.000006 24.499938 L 26.999958 24.499938 M 2.000043 25.500029 L 2.999995 25.500029 M 8.000034 25.500029 L 8.999986 25.500029 M 11.000029 25.500029 L 14.000025 25.500029 M 16.000068 25.500029 L 17.00002 25.500029 M 17.999972 25.500029 L 20.000015 25.500029 M 20.999967 25.500029 L 23.000011 25.500029 M 26.000006 25.500029 L 26.999958 25.500029 M 2.000043 26.499981 L 8.999986 26.499981 M 9.999938 26.499981 L 11.000029 26.499981 M 14.000025 26.499981 L 17.00002 26.499981 M 17.999972 26.499981 L 20.000015 26.499981 M 23.000011 26.499981 L 23.999962 26.499981 M 26.000006 26.499981 L 26.999958 26.499981 " stroke="#000000" stroke-width="1" stroke-opacity="1" stroke-miterlimit="4"/></svg>