<svg xmlns="http://www.w3.org/2000/svg" xmlns:xlink="http://www.w3.org/1999/xlink" width="1080" zoomAndPan="magnify" viewBox="0 0 810 809.999993" height="1080" preserveAspectRatio="xMidYMid meet" version="1.0"><rect x="-81" width="972" fill="#ffffff" y="-80.999999" height="971.999992" fill-opacity="1"/><path stroke-linecap="butt" transform="matrix(21.891891, 0, 0, 21.891891, 0.0000035, 0.00002)" fill-opacity="1" fill="#ffffff" fill-rule="nonzero" stroke-linejoin="miter" d="M 2.000063 2.500033 L 9.000015 2.500033 M 11.000077 2.500033 L 12.999962 2.500033 M 15.999967 2.500033 L 17.000087 2.500033 M 18.00003 2.500033 L 18.999972 2.500033 M 21.000034 2.500033 L 24.000039 2.500033 M 24.999982 2.500033 L 25.999924 2.500033 M 27.999987 2.500033 L 34.999939 2.500033 M 2.000063 3.499975 L 3.000005 3.499975 M 8.000073 3.499975 L 9.000015 3.499975 M 11.000077 3.499975 L 14.000082 3.499975 M 17.000087 3.499975 L 18.999972 3.499975 M 19.999914 3.499975 L 21.000034 3.499975 M 27.999987 3.499975 L 28.999929 3.499975 M 33.999996 3.499975 L 34.999939 3.499975 M 2.000063 4.499917 L 3.000005 4.499917 M 3.999947 4.499917 L 6.999952 4.499917 M 8.000073 4.499917 L 9.000015 4.499917 M 9.999957 4.499917 L 11.000077 4.499917 M 12.00002 4.499917 L 12.999962 4.499917 M 15.999967 4.499917 L 18.00003 4.499917 M 22.999919 4.499917 L 24.999982 4.499917 M 25.999924 4.499917 L 27.000044 4.499917 M 27.999987 4.499917 L 28.999929 4.499917 M 30.000049 4.499917 L 33.000054 4.499917 M 33.999996 4.499917 L 34.999939 4.499917 M 2.000063 5.500038 L 3.000005 5.500038 M 3.999947 5.500038 L 6.999952 5.500038 M 8.000073 5.500038 L 9.000015 5.500038 M 9.999957 5.500038 L 11.000077 5.500038 M 12.00002 5.500038 L 14.000082 5.500038 M 17.000087 5.500038 L 18.00003 5.500038 M 19.999914 5.500038 L 21.000034 5.500038 M 24.000039 5.500038 L 25.999924 5.500038 M 27.999987 5.500038 L 28.999929 5.500038 M 30.000049 5.500038 L 33.000054 5.500038 M 33.999996 5.500038 L 34.999939 5.500038 M 2.000063 6.49998 L 3.000005 6.49998 M 3.999947 6.49998 L 6.999952 6.49998 M 8.000073 6.49998 L 9.000015 6.49998 M 9.999957 6.49998 L 12.00002 6.49998 M 14.000082 6.49998 L 15.000025 6.49998 M 15.999967 6.49998 L 18.999972 6.49998 M 21.999977 6.49998 L 24.000039 6.49998 M 24.999982 6.49998 L 25.999924 6.49998 M 27.999987 6.49998 L 28.999929 6.49998 M 30.000049 6.49998 L 33.000054 6.49998 M 33.999996 6.49998 L 34.999939 6.49998 M 2.000063 7.499922 L 3.000005 7.499922 M 8.000073 7.499922 L 9.000015 7.499922 M 9.999957 7.499922 L 11.000077 7.499922 M 14.000082 7.499922 L 15.999967 7.499922 M 18.999972 7.499922 L 21.999977 7.499922 M 22.999919 7.499922 L 24.999982 7.499922 M 27.999987 7.499922 L 28.999929 7.499922 M 33.999996 7.499922 L 34.999939 7.499922 M 2.000063 8.500043 L 9.000015 8.500043 M 9.999957 8.500043 L 11.000077 8.500043 M 12.00002 8.500043 L 12.999962 8.500043 M 14.000082 8.500043 L 15.000025 8.500043 M 15.999967 8.500043 L 17.000087 8.500043 M 18.00003 8.500043 L 18.999972 8.500043 M 19.999914 8.500043 L 21.000034 8.500043 M 21.999977 8.500043 L 22.999919 8.500043 M 24.000039 8.500043 L 24.999982 8.500043 M 25.999924 8.500043 L 27.000044 8.500043 M 27.999987 8.500043 L 34.999939 8.500043 M 9.999957 9.499985 L 11.000077 9.499985 M 12.999962 9.499985 L 15.000025 9.499985 M 18.00003 9.499985 L 18.999972 9.499985 M 19.999914 9.499985 L 24.000039 9.499985 M 2.000063 10.499927 L 3.000005 10.499927 M 3.999947 10.499927 L 9.000015 10.499927 M 15.000025 10.499927 L 17.000087 10.499927 M 18.999972 10.499927 L 19.999914 10.499927 M 21.000034 10.499927 L 22.999919 10.499927 M 24.000039 10.499927 L 27.000044 10.499927 M 27.999987 10.499927 L 33.000054 10.499927 M 3.000005 11.500048 L 3.999947 11.500048 M 6.00001 11.500048 L 6.999952 11.500048 M 15.000025 11.500048 L 17.000087 11.500048 M 18.00003 11.500048 L 22.999919 11.500048 M 24.999982 11.500048 L 25.999924 11.500048 M 27.999987 11.500048 L 30.000049 11.500048 M 30.999991 11.500048 L 33.000054 11.500048 M 33.999996 11.500048 L 34.999939 11.500048 M 3.999947 12.49999 L 6.999952 12.49999 M 8.000073 12.49999 L 9.000015 12.49999 M 11.000077 12.49999 L 12.00002 12.49999 M 12.999962 12.49999 L 14.000082 12.49999 M 15.000025 12.49999 L 19.999914 12.49999 M 21.999977 12.49999 L 24.000039 12.49999 M 25.999924 12.49999 L 27.000044 12.49999 M 30.000049 12.49999 L 30.999991 12.49999 M 31.999934 12.49999 L 33.999996 12.49999 M 2.000063 13.499932 L 3.000005 13.499932 M 9.000015 13.499932 L 12.00002 13.499932 M 12.999962 13.499932 L 14.000082 13.499932 M 15.000025 13.499932 L 15.999967 13.499932 M 17.000087 13.499932 L 24.000039 13.499932 M 24.999982 13.499932 L 25.999924 13.499932 M 27.000044 13.499932 L 27.999987 13.499932 M 30.000049 13.499932 L 33.000054 13.499932 M 3.000005 14.500053 L 6.00001 14.500053 M 6.999952 14.500053 L 9.000015 14.500053 M 14.000082 14.500053 L 15.000025 14.500053 M 15.999967 14.500053 L 17.000087 14.500053 M 18.00003 14.500053 L 18.999972 14.500053 M 21.000034 14.500053 L 22.999919 14.500053 M 24.000039 14.500053 L 27.999987 14.500053 M 28.999929 14.500053 L 31.999934 14.500053 M 33.999996 14.500053 L 34.999939 14.500053 M 3.999947 15.499995 L 5.000068 15.499995 M 6.00001 15.499995 L 8.000073 15.499995 M 9.999957 15.499995 L 11.000077 15.499995 M 14.000082 15.499995 L 15.999967 15.499995 M 17.000087 15.499995 L 18.00003 15.499995 M 18.999972 15.499995 L 21.000034 15.499995 M 22.999919 15.499995 L 24.000039 15.499995 M 24.999982 15.499995 L 28.999929 15.499995 M 30.999991 15.499995 L 31.999934 15.499995 M 33.000054 15.499995 L 34.999939 15.499995 M 3.000005 16.499937 L 3.999947 16.499937 M 5.000068 16.499937 L 6.00001 16.499937 M 6.999952 16.499937 L 9.000015 16.499937 M 9.999957 16.499937 L 12.999962 16.499937 M 14.000082 16.499937 L 19.999914 16.499937 M 21.999977 16.499937 L 22.999919 16.499937 M 25.999924 16.499937 L 28.999929 16.499937 M 30.999991 16.499937 L 31.999934 16.499937 M 33.000054 16.499937 L 33.999996 16.499937 M 2.000063 17.500058 L 6.00001 17.500058 M 9.000015 17.500058 L 9.999957 17.500058 M 15.999967 17.500058 L 18.00003 17.500058 M 22.999919 17.500058 L 24.999982 17.500058 M 27.000044 17.500058 L 28.999929 17.500058 M 30.000049 17.500058 L 33.000054 17.500058 M 3.000005 18.5 L 5.000068 18.5 M 6.999952 18.5 L 9.000015 18.5 M 15.000025 18.5 L 15.999967 18.5 M 17.000087 18.5 L 18.00003 18.5 M 18.999972 18.5 L 19.999914 18.5 M 25.999924 18.5 L 27.999987 18.5 M 28.999929 18.5 L 30.999991 18.5 M 33.999996 18.5 L 34.999939 18.5 M 5.000068 19.499942 L 6.00001 19.499942 M 9.000015 19.499942 L 9.999957 19.499942 M 11.000077 19.499942 L 12.00002 19.499942 M 12.999962 19.499942 L 14.000082 19.499942 M 18.00003 19.499942 L 18.999972 19.499942 M 19.999914 19.499942 L 21.999977 19.499942 M 22.999919 19.499942 L 24.000039 19.499942 M 24.999982 19.499942 L 30.000049 19.499942 M 30.999991 19.499942 L 33.000054 19.499942 M 33.999996 19.499942 L 34.999939 19.499942 M 2.000063 20.500063 L 3.000005 20.500063 M 3.999947 20.500063 L 5.000068 20.500063 M 8.000073 20.500063 L 9.000015 20.500063 M 12.999962 20.500063 L 14.000082 20.500063 M 15.000025 20.500063 L 18.999972 20.500063 M 19.999914 20.500063 L 21.000034 20.500063 M 21.999977 20.500063 L 24.000039 20.500063 M 28.999929 20.500063 L 30.999991 20.500063 M 31.999934 20.500063 L 33.999996 20.500063 M 2.000063 21.500005 L 3.000005 21.500005 M 5.000068 21.500005 L 6.00001 21.500005 M 6.999952 21.500005 L 8.000073 21.500005 M 12.999962 21.500005 L 14.000082 21.500005 M 15.000025 21.500005 L 15.999967 21.500005 M 21.999977 21.500005 L 25.999924 21.500005 M 27.999987 21.500005 L 33.000054 21.500005 M 3.000005 22.499947 L 5.000068 22.499947 M 6.00001 22.499947 L 9.999957 22.499947 M 12.00002 22.499947 L 14.000082 22.499947 M 15.000025 22.499947 L 15.999967 22.499947 M 17.000087 22.499947 L 18.00003 22.499947 M 19.999914 22.499947 L 21.999977 22.499947 M 24.000039 22.499947 L 24.999982 22.499947 M 27.000044 22.499947 L 27.999987 22.499947 M 28.999929 22.499947 L 31.999934 22.499947 M 2.000063 23.500068 L 6.00001 23.500068 M 6.999952 23.500068 L 8.000073 23.500068 M 11.000077 23.500068 L 12.00002 23.500068 M 15.999967 23.500068 L 19.999914 23.500068 M 21.999977 23.500068 L 22.999919 23.500068 M 24.000039 23.500068 L 25.999924 23.500068 M 27.999987 23.500068 L 28.999929 23.500068 M 30.999991 23.500068 L 31.999934 23.500068 M 33.999996 23.500068 L 34.999939 23.500068 M 2.000063 24.50001 L 3.000005 24.50001 M 3.999947 24.50001 L 5.000068 24.50001 M 6.00001 24.50001 L 9.000015 24.50001 M 11.000077 24.50001 L 15.000025 24.50001 M 15.999967 24.50001 L 17.000087 24.50001 M 21.000034 24.50001 L 21.999977 24.50001 M 24.000039 24.50001 L 24.999982 24.50001 M 27.000044 24.50001 L 27.999987 24.50001 M 33.000054 24.50001 L 33.999996 24.50001 M 2.000063 25.499952 L 3.000005 25.499952 M 3.999947 25.499952 L 6.00001 25.499952 M 9.999957 25.499952 L 14.000082 25.499952 M 15.000025 25.499952 L 17.000087 25.499952 M 18.00003 25.499952 L 18.999972 25.499952 M 21.000034 25.499952 L 24.000039 25.499952 M 27.000044 25.499952 L 28.999929 25.499952 M 30.000049 25.499952 L 33.999996 25.499952 M 2.000063 26.500073 L 3.000005 26.500073 M 5.000068 26.500073 L 6.00001 26.500073 M 8.000073 26.500073 L 11.000077 26.500073 M 18.00003 26.500073 L 19.999914 26.500073 M 21.000034 26.500073 L 21.999977 26.500073 M 24.000039 26.500073 L 24.999982 26.500073 M 25.999924 26.500073 L 30.999991 26.500073 M 9.999957 27.500015 L 11.000077 27.500015 M 12.999962 27.500015 L 17.000087 27.500015 M 18.00003 27.500015 L 24.000039 27.500015 M 24.999982 27.500015 L 27.000044 27.500015 M 30.000049 27.500015 L 30.999991 27.500015 M 31.999934 27.500015 L 34.999939 27.500015 M 2.000063 28.499957 L 9.000015 28.499957 M 14.000082 28.499957 L 15.000025 28.499957 M 15.999967 28.499957 L 19.999914 28.499957 M 21.999977 28.499957 L 22.999919 28.499957 M 24.999982 28.499957 L 27.000044 28.499957 M 27.999987 28.499957 L 28.999929 28.499957 M 30.000049 28.499957 L 30.999991 28.499957 M 31.999934 28.499957 L 33.999996 28.499957 M 2.000063 29.500077 L 3.000005 29.500077 M 8.000073 29.500077 L 9.000015 29.500077 M 9.999957 29.500077 L 12.999962 29.500077 M 14.000082 29.500077 L 15.999967 29.500077 M 18.00003 29.500077 L 24.000039 29.500077 M 24.999982 29.500077 L 27.000044 29.500077 M 30.000049 29.500077 L 33.000054 29.500077 M 2.000063 30.50002 L 3.000005 30.50002 M 3.999947 30.50002 L 6.999952 30.50002 M 8.000073 30.50002 L 9.000015 30.50002 M 9.999957 30.50002 L 14.000082 30.50002 M 15.000025 30.50002 L 17.000087 30.50002 M 18.00003 30.50002 L 18.999972 30.50002 M 21.000034 30.50002 L 21.999977 30.50002 M 24.000039 30.50002 L 24.999982 30.50002 M 25.999924 30.50002 L 31.999934 30.50002 M 33.000054 30.50002 L 33.999996 30.50002 M 2.000063 31.499962 L 3.000005 31.499962 M 3.999947 31.499962 L 6.999952 31.499962 M 8.000073 31.499962 L 9.000015 31.499962 M 9.999957 31.499962 L 11.000077 31.499962 M 12.00002 31.499962 L 12.999962 31.499962 M 14.000082 31.499962 L 15.000025 31.499962 M 17.000087 31.499962 L 18.00003 31.499962 M 18.999972 31.499962 L 21.000034 31.499962 M 22.999919 31.499962 L 24.000039 31.499962 M 24.999982 31.499962 L 25.999924 31.499962 M 27.000044 31.499962 L 27.999987 31.499962 M 30.000049 31.499962 L 34.999939 31.499962 M 2.000063 32.500082 L 3.000005 32.500082 M 3.999947 32.500082 L 6.999952 32.500082 M 8.000073 32.500082 L 9.000015 32.500082 M 9.999957 32.500082 L 11.000077 32.500082 M 12.00002 32.500082 L 15.999967 32.500082 M 17.000087 32.500082 L 19.999914 32.500082 M 21.999977 32.500082 L 22.999919 32.500082 M 24.999982 32.500082 L 30.000049 32.500082 M 30.999991 32.500082 L 33.000054 32.500082 M 2.000063 33.500025 L 3.000005 33.500025 M 8.000073 33.500025 L 9.000015 33.500025 M 12.999962 33.500025 L 14.000082 33.500025 M 15.000025 33.500025 L 15.999967 33.500025 M 17.000087 33.500025 L 18.00003 33.500025 M 21.999977 33.500025 L 24.999982 33.500025 M 27.999987 33.500025 L 28.999929 33.500025 M 30.000049 33.500025 L 30.999991 33.500025 M 31.999934 33.500025 L 33.000054 33.500025 M 2.000063 34.499967 L 9.000015 34.499967 M 9.999957 34.499967 L 15.000025 34.499967 M 15.999967 34.499967 L 18.00003 34.499967 M 18.999972 34.499967 L 21.000034 34.499967 M 24.000039 34.499967 L 30.000049 34.499967 M 33.000054 34.499967 L 33.999996 34.499967 " stroke="#000000" stroke-width="1" stroke-opacity="1" stroke-miterlimit="4"/></svg>