<svg xmlns="http://www.w3.org/2000/svg" xmlns:xlink="http://www.w3.org/1999/xlink" width="1080" zoomAndPan="magnify" viewBox="0 0 810 809.999993" height="1080" preserveAspectRatio="xMidYMid meet" version="1.0"><rect x="-81" width="972" fill="#ffffff" y="-80.999999" height="971.999992" fill-opacity="1"/><rect x="-81" width="972" fill="#ffffff" y="-80.999999" height="971.999992" fill-opacity="1"/><rect x="-81" width="972" fill="#ffffff" y="-80.999999" height="971.999992" fill-opacity="1"/><path stroke-linecap="butt" transform="matrix(24.545453, 0, 0, 24.545453, 0.0000035, 0.00002)" fill-opacity="1" fill="#ffffff" fill-rule="nonzero" stroke-linejoin="miter" d="M 1.999957 2.499985 L 9.000044 2.499985 M 12.000058 2.499985 L 17.999928 2.499985 M 18.999986 2.499985 L 23.000059 2.499985 M 23.999957 2.499985 L 31.000045 2.499985 M 1.999957 3.500043 L 3.000014 3.500043 M 7.999986 3.500043 L 9.000044 3.500043 M 11 3.500043 L 18.999986 3.500043 M 22.000001 3.500043 L 23.000059 3.500043 M 23.999957 3.500043 L 25.000015 3.500043 M 29.999987 3.500043 L 31.000045 3.500043 M 1.999957 4.499942 L 3.000014 4.499942 M 4.000072 4.499942 L 6.999928 4.499942 M 7.999986 4.499942 L 9.000044 4.499942 M 9.999942 4.499942 L 15.999972 4.499942 M 17.00003 4.499942 L 17.999928 4.499942 M 20.999943 4.499942 L 22.000001 4.499942 M 23.999957 4.499942 L 25.000015 4.499942 M 26.000073 4.499942 L 28.999929 4.499942 M 29.999987 4.499942 L 31.000045 4.499942 M 1.999957 5.499999 L 3.000014 5.499999 M 4.000072 5.499999 L 6.999928 5.499999 M 7.999986 5.499999 L 9.000044 5.499999 M 9.999942 5.499999 L 12.000058 5.499999 M 12.999957 5.499999 L 14.000015 5.499999 M 15.999972 5.499999 L 17.999928 5.499999 M 18.999986 5.499999 L 22.000001 5.499999 M 23.999957 5.499999 L 25.000015 5.499999 M 26.000073 5.499999 L 28.999929 5.499999 M 29.999987 5.499999 L 31.000045 5.499999 M 1.999957 6.500057 L 3.000014 6.500057 M 4.000072 6.500057 L 6.999928 6.500057 M 7.999986 6.500057 L 9.000044 6.500057 M 9.999942 6.500057 L 11 6.500057 M 12.999957 6.500057 L 15.000073 6.500057 M 17.00003 6.500057 L 18.999986 6.500057 M 22.000001 6.500057 L 23.000059 6.500057 M 23.999957 6.500057 L 25.000015 6.500057 M 26.000073 6.500057 L 28.999929 6.500057 M 29.999987 6.500057 L 31.000045 6.500057 M 1.999957 7.499956 L 3.000014 7.499956 M 7.999986 7.499956 L 9.000044 7.499956 M 9.999942 7.499956 L 12.000058 7.499956 M 20.000044 7.499956 L 20.999943 7.499956 M 22.000001 7.499956 L 23.000059 7.499956 M 23.999957 7.499956 L 25.000015 7.499956 M 29.999987 7.499956 L 31.000045 7.499956 M 1.999957 8.500014 L 9.000044 8.500014 M 9.999942 8.500014 L 11 8.500014 M 12.000058 8.500014 L 12.999957 8.500014 M 14.000015 8.500014 L 15.000073 8.500014 M 15.999972 8.500014 L 17.00003 8.500014 M 17.999928 8.500014 L 18.999986 8.500014 M 20.000044 8.500014 L 20.999943 8.500014 M 22.000001 8.500014 L 23.000059 8.500014 M 23.999957 8.500014 L 31.000045 8.500014 M 9.999942 9.500072 L 11 9.500072 M 15.999972 9.500072 L 17.00003 9.500072 M 17.999928 9.500072 L 18.999986 9.500072 M 20.000044 9.500072 L 20.999943 9.500072 M 1.999957 10.499971 L 3.000014 10.499971 M 4.000072 10.499971 L 9.000044 10.499971 M 12.000058 10.499971 L 14.000015 10.499971 M 17.999928 10.499971 L 20.000044 10.499971 M 20.999943 10.499971 L 22.000001 10.499971 M 23.999957 10.499971 L 28.999929 10.499971 M 4.000072 11.500029 L 6.000029 11.500029 M 9.999942 11.500029 L 11 11.500029 M 15.000073 11.500029 L 17.999928 11.500029 M 18.999986 11.500029 L 20.000044 11.500029 M 22.000001 11.500029 L 23.000059 11.500029 M 23.999957 11.500029 L 26.999972 11.500029 M 29.999987 11.500029 L 31.000045 11.500029 M 1.999957 12.499927 L 4.000072 12.499927 M 7.999986 12.499927 L 9.999942 12.499927 M 11 12.499927 L 12.000058 12.499927 M 12.999957 12.499927 L 14.000015 12.499927 M 15.000073 12.499927 L 20.999943 12.499927 M 22.000001 12.499927 L 23.000059 12.499927 M 26.000073 12.499927 L 26.999972 12.499927 M 1.999957 13.499985 L 3.000014 13.499985 M 4.000072 13.499985 L 4.999971 13.499985 M 6.000029 13.499985 L 7.999986 13.499985 M 9.000044 13.499985 L 12.000058 13.499985 M 12.999957 13.499985 L 14.000015 13.499985 M 15.000073 13.499985 L 15.999972 13.499985 M 17.00003 13.499985 L 17.999928 13.499985 M 20.000044 13.499985 L 20.999943 13.499985 M 25.000015 13.499985 L 28.00003 13.499985 M 28.999929 13.499985 L 29.999987 13.499985 M 3.000014 14.500043 L 4.000072 14.500043 M 4.999971 14.500043 L 6.999928 14.500043 M 7.999986 14.500043 L 9.000044 14.500043 M 9.999942 14.500043 L 11 14.500043 M 14.000015 14.500043 L 15.000073 14.500043 M 15.999972 14.500043 L 17.999928 14.500043 M 22.000001 14.500043 L 23.999957 14.500043 M 25.000015 14.500043 L 26.000073 14.500043 M 26.999972 14.500043 L 28.999929 14.500043 M 3.000014 15.499942 L 4.999971 15.499942 M 6.999928 15.499942 L 7.999986 15.499942 M 9.000044 15.499942 L 9.999942 15.499942 M 11 15.499942 L 14.000015 15.499942 M 17.00003 15.499942 L 22.000001 15.499942 M 23.000059 15.499942 L 26.999972 15.499942 M 29.999987 15.499942 L 31.000045 15.499942 M 1.999957 16.5 L 3.000014 16.5 M 4.000072 16.5 L 4.999971 16.5 M 6.999928 16.5 L 9.000044 16.5 M 11 16.5 L 14.000015 16.5 M 18.999986 16.5 L 20.999943 16.5 M 22.000001 16.5 L 23.000059 16.5 M 23.999957 16.5 L 28.999929 16.5 M 1.999957 17.500058 L 4.000072 17.500058 M 4.999971 17.500058 L 6.999928 17.500058 M 9.999942 17.500058 L 11 17.500058 M 12.000058 17.500058 L 12.999957 17.500058 M 15.999972 17.500058 L 17.00003 17.500058 M 17.999928 17.500058 L 18.999986 17.500058 M 20.000044 17.500058 L 26.999972 17.500058 M 28.999929 17.500058 L 29.999987 17.500058 M 1.999957 18.499957 L 4.999971 18.499957 M 6.999928 18.499957 L 9.999942 18.499957 M 12.999957 18.499957 L 14.000015 18.499957 M 17.999928 18.499957 L 18.999986 18.499957 M 25.000015 18.499957 L 26.000073 18.499957 M 26.999972 18.499957 L 28.999929 18.499957 M 1.999957 19.500014 L 7.999986 19.500014 M 9.000044 19.500014 L 9.999942 19.500014 M 11 19.500014 L 17.999928 19.500014 M 22.000001 19.500014 L 26.999972 19.500014 M 28.00003 19.500014 L 28.999929 19.500014 M 29.999987 19.500014 L 31.000045 19.500014 M 1.999957 20.500072 L 3.000014 20.500072 M 6.999928 20.500072 L 9.000044 20.500072 M 11 20.500072 L 12.000058 20.500072 M 14.000015 20.500072 L 18.999986 20.500072 M 22.000001 20.500072 L 23.999957 20.500072 M 25.000015 20.500072 L 26.000073 20.500072 M 28.00003 20.500072 L 28.999929 20.500072 M 1.999957 21.499971 L 3.000014 21.499971 M 4.000072 21.499971 L 4.999971 21.499971 M 6.000029 21.499971 L 7.999986 21.499971 M 9.999942 21.499971 L 12.000058 21.499971 M 12.999957 21.499971 L 14.000015 21.499971 M 15.000073 21.499971 L 15.999972 21.499971 M 17.00003 21.499971 L 17.999928 21.499971 M 22.000001 21.499971 L 26.000073 21.499971 M 28.999929 21.499971 L 29.999987 21.499971 M 1.999957 22.500029 L 3.000014 22.500029 M 4.000072 22.500029 L 4.999971 22.500029 M 6.000029 22.500029 L 9.000044 22.500029 M 11 22.500029 L 12.999957 22.500029 M 14.000015 22.500029 L 15.000073 22.500029 M 15.999972 22.500029 L 17.999928 22.500029 M 18.999986 22.500029 L 20.000044 22.500029 M 20.999943 22.500029 L 26.999972 22.500029 M 28.00003 22.500029 L 31.000045 22.500029 M 9.999942 23.499928 L 11 23.499928 M 12.999957 23.499928 L 15.000073 23.499928 M 17.00003 23.499928 L 18.999986 23.499928 M 22.000001 23.499928 L 23.000059 23.499928 M 26.000073 23.499928 L 31.000045 23.499928 M 1.999957 24.499986 L 9.000044 24.499986 M 11 24.499986 L 12.000058 24.499986 M 12.999957 24.499986 L 15.000073 24.499986 M 18.999986 24.499986 L 23.000059 24.499986 M 23.999957 24.499986 L 25.000015 24.499986 M 26.000073 24.499986 L 28.999929 24.499986 M 1.999957 25.500044 L 3.000014 25.500044 M 7.999986 25.500044 L 9.000044 25.500044 M 9.999942 25.500044 L 11 25.500044 M 12.000058 25.500044 L 12.999957 25.500044 M 14.000015 25.500044 L 15.000073 25.500044 M 15.999972 25.500044 L 17.00003 25.500044 M 17.999928 25.500044 L 18.999986 25.500044 M 20.999943 25.500044 L 23.000059 25.500044 M 26.000073 25.500044 L 26.999972 25.500044 M 28.999929 25.500044 L 29.999987 25.500044 M 1.999957 26.499942 L 3.000014 26.499942 M 4.000072 26.499942 L 6.999928 26.499942 M 7.999986 26.499942 L 9.000044 26.499942 M 9.999942 26.499942 L 11 26.499942 M 12.000058 26.499942 L 14.000015 26.499942 M 17.999928 26.499942 L 18.999986 26.499942 M 20.000044 26.499942 L 20.999943 26.499942 M 22.000001 26.499942 L 26.999972 26.499942 M 28.00003 26.499942 L 28.999929 26.499942 M 29.999987 26.499942 L 31.000045 26.499942 M 1.999957 27.5 L 3.000014 27.5 M 4.000072 27.5 L 6.999928 27.5 M 7.999986 27.5 L 9.000044 27.5 M 9.999942 27.5 L 11 27.5 M 14.000015 27.5 L 15.000073 27.5 M 15.999972 27.5 L 17.999928 27.5 M 18.999986 27.5 L 23.000059 27.5 M 26.999972 27.5 L 28.999929 27.5 M 1.999957 28.500058 L 3.000014 28.500058 M 4.000072 28.500058 L 6.999928 28.500058 M 7.999986 28.500058 L 9.000044 28.500058 M 9.999942 28.500058 L 14.000015 28.500058 M 17.00003 28.500058 L 20.000044 28.500058 M 20.999943 28.500058 L 29.999987 28.500058 M 1.999957 29.499957 L 3.000014 29.499957 M 7.999986 29.499957 L 9.000044 29.499957 M 12.000058 29.499957 L 12.999957 29.499957 M 15.000073 29.499957 L 15.999972 29.499957 M 17.00003 29.499957 L 17.999928 29.499957 M 18.999986 29.499957 L 20.999943 29.499957 M 22.000001 29.499957 L 23.000059 29.499957 M 25.000015 29.499957 L 28.00003 29.499957 M 28.999929 29.499957 L 29.999987 29.499957 M 1.999957 30.500015 L 9.000044 30.500015 M 9.999942 30.500015 L 11 30.500015 M 12.999957 30.500015 L 17.999928 30.500015 M 26.999972 30.500015 L 28.999929 30.500015 " stroke="#000000" stroke-width="1" stroke-opacity="1" stroke-miterlimit="4"/></svg>