<svg xmlns="http://www.w3.org/2000/svg" xmlns:xlink="http://www.w3.org/1999/xlink" width="1080" zoomAndPan="magnify" viewBox="0 0 810 809.999993" height="1080" preserveAspectRatio="xMidYMid meet" version="1.0"><rect x="-81" width="972" fill="#ffffff" y="-80.999999" height="971.999992" fill-opacity="1"/><path stroke-linecap="butt" transform="matrix(21.891891, 0, 0, 21.891891, 0.0000035, 0.00002)" fill-opacity="1" fill="#ffffff" fill-rule="nonzero" stroke-linejoin="miter" d="M 2.000063 2.500033 L 9.000015 2.500033 M 11.000077 2.500033 L 12.00002 2.500033 M 12.999962 2.500033 L 14.000082 2.500033 M 15.000025 2.500033 L 15.999967 2.500033 M 18.00003 2.500033 L 25.999924 2.500033 M 27.999987 2.500033 L 34.999939 2.500033 M 2.000063 3.499975 L 3.000005 3.499975 M 8.000073 3.499975 L 9.000015 3.499975 M 11.000077 3.499975 L 12.00002 3.499975 M 12.999962 3.499975 L 14.000082 3.499975 M 15.000025 3.499975 L 18.00003 3.499975 M 18.999972 3.499975 L 19.999914 3.499975 M 21.999977 3.499975 L 24.999982 3.499975 M 27.999987 3.499975 L 28.999929 3.499975 M 33.999996 3.499975 L 34.999939 3.499975 M 2.000063 4.499917 L 3.000005 4.499917 M 3.999947 4.499917 L 6.999952 4.499917 M 8.000073 4.499917 L 9.000015 4.499917 M 9.999957 4.499917 L 11.000077 4.499917 M 12.999962 4.499917 L 14.000082 4.499917 M 15.000025 4.499917 L 15.999967 4.499917 M 18.00003 4.499917 L 21.999977 4.499917 M 22.999919 4.499917 L 25.999924 4.499917 M 27.999987 4.499917 L 28.999929 4.499917 M 30.000049 4.499917 L 33.000054 4.499917 M 33.999996 4.499917 L 34.999939 4.499917 M 2.000063 5.500038 L 3.000005 5.500038 M 3.999947 5.500038 L 6.999952 5.500038 M 8.000073 5.500038 L 9.000015 5.500038 M 9.999957 5.500038 L 12.00002 5.500038 M 12.999962 5.500038 L 14.000082 5.500038 M 15.999967 5.500038 L 17.000087 5.500038 M 18.00003 5.500038 L 18.999972 5.500038 M 24.000039 5.500038 L 27.000044 5.500038 M 27.999987 5.500038 L 28.999929 5.500038 M 30.000049 5.500038 L 33.000054 5.500038 M 33.999996 5.500038 L 34.999939 5.500038 M 2.000063 6.49998 L 3.000005 6.49998 M 3.999947 6.49998 L 6.999952 6.49998 M 8.000073 6.49998 L 9.000015 6.49998 M 9.999957 6.49998 L 12.999962 6.49998 M 14.000082 6.49998 L 15.000025 6.49998 M 17.000087 6.49998 L 18.00003 6.49998 M 19.999914 6.49998 L 21.000034 6.49998 M 22.999919 6.49998 L 25.999924 6.49998 M 27.999987 6.49998 L 28.999929 6.49998 M 30.000049 6.49998 L 33.000054 6.49998 M 33.999996 6.49998 L 34.999939 6.49998 M 2.000063 7.499922 L 3.000005 7.499922 M 8.000073 7.499922 L 9.000015 7.499922 M 9.999957 7.499922 L 11.000077 7.499922 M 12.999962 7.499922 L 15.999967 7.499922 M 17.000087 7.499922 L 18.999972 7.499922 M 22.999919 7.499922 L 24.000039 7.499922 M 25.999924 7.499922 L 27.000044 7.499922 M 27.999987 7.499922 L 28.999929 7.499922 M 33.999996 7.499922 L 34.999939 7.499922 M 2.000063 8.500043 L 9.000015 8.500043 M 9.999957 8.500043 L 11.000077 8.500043 M 12.00002 8.500043 L 12.999962 8.500043 M 14.000082 8.500043 L 15.000025 8.500043 M 15.999967 8.500043 L 17.000087 8.500043 M 18.00003 8.500043 L 18.999972 8.500043 M 19.999914 8.500043 L 21.000034 8.500043 M 21.999977 8.500043 L 22.999919 8.500043 M 24.000039 8.500043 L 24.999982 8.500043 M 25.999924 8.500043 L 27.000044 8.500043 M 27.999987 8.500043 L 34.999939 8.500043 M 9.999957 9.499985 L 12.00002 9.499985 M 15.999967 9.499985 L 18.00003 9.499985 M 21.999977 9.499985 L 24.000039 9.499985 M 24.999982 9.499985 L 27.000044 9.499985 M 2.000063 10.499927 L 3.000005 10.499927 M 3.999947 10.499927 L 9.000015 10.499927 M 12.00002 10.499927 L 12.999962 10.499927 M 14.000082 10.499927 L 18.00003 10.499927 M 18.999972 10.499927 L 19.999914 10.499927 M 21.000034 10.499927 L 22.999919 10.499927 M 24.000039 10.499927 L 24.999982 10.499927 M 25.999924 10.499927 L 27.000044 10.499927 M 27.999987 10.499927 L 33.000054 10.499927 M 3.000005 11.500048 L 3.999947 11.500048 M 5.000068 11.500048 L 6.00001 11.500048 M 9.000015 11.500048 L 12.00002 11.500048 M 12.999962 11.500048 L 15.000025 11.500048 M 18.00003 11.500048 L 18.999972 11.500048 M 21.000034 11.500048 L 24.000039 11.500048 M 24.999982 11.500048 L 25.999924 11.500048 M 27.999987 11.500048 L 30.000049 11.500048 M 30.999991 11.500048 L 33.000054 11.500048 M 33.999996 11.500048 L 34.999939 11.500048 M 2.000063 12.49999 L 3.000005 12.49999 M 3.999947 12.49999 L 12.00002 12.49999 M 12.999962 12.49999 L 15.000025 12.49999 M 17.000087 12.49999 L 18.999972 12.49999 M 19.999914 12.49999 L 21.000034 12.49999 M 25.999924 12.49999 L 27.000044 12.49999 M 30.000049 12.49999 L 30.999991 12.49999 M 31.999934 12.49999 L 33.999996 12.49999 M 2.000063 13.499932 L 3.000005 13.499932 M 3.999947 13.499932 L 5.000068 13.499932 M 9.000015 13.499932 L 11.000077 13.499932 M 15.999967 13.499932 L 18.00003 13.499932 M 21.999977 13.499932 L 24.000039 13.499932 M 24.999982 13.499932 L 25.999924 13.499932 M 27.000044 13.499932 L 27.999987 13.499932 M 30.000049 13.499932 L 34.999939 13.499932 M 3.000005 14.500053 L 3.999947 14.500053 M 5.000068 14.500053 L 9.999957 14.500053 M 11.000077 14.500053 L 15.000025 14.500053 M 17.000087 14.500053 L 18.00003 14.500053 M 19.999914 14.500053 L 21.000034 14.500053 M 24.000039 14.500053 L 27.999987 14.500053 M 28.999929 14.500053 L 31.999934 14.500053 M 2.000063 15.499995 L 6.999952 15.499995 M 9.999957 15.499995 L 11.000077 15.499995 M 12.00002 15.499995 L 12.999962 15.499995 M 15.999967 15.499995 L 18.999972 15.499995 M 21.000034 15.499995 L 25.999924 15.499995 M 27.000044 15.499995 L 27.999987 15.499995 M 30.999991 15.499995 L 31.999934 15.499995 M 33.000054 15.499995 L 34.999939 15.499995 M 3.999947 16.499937 L 6.00001 16.499937 M 6.999952 16.499937 L 9.000015 16.499937 M 9.999957 16.499937 L 11.000077 16.499937 M 15.000025 16.499937 L 17.000087 16.499937 M 21.999977 16.499937 L 24.999982 16.499937 M 27.000044 16.499937 L 30.000049 16.499937 M 30.999991 16.499937 L 31.999934 16.499937 M 33.000054 16.499937 L 33.999996 16.499937 M 2.000063 17.500058 L 3.999947 17.500058 M 5.000068 17.500058 L 6.00001 17.500058 M 6.999952 17.500058 L 8.000073 17.500058 M 11.000077 17.500058 L 12.999962 17.500058 M 14.000082 17.500058 L 15.000025 17.500058 M 15.999967 17.500058 L 17.000087 17.500058 M 18.00003 17.500058 L 18.999972 17.500058 M 19.999914 17.500058 L 21.000034 17.500058 M 21.999977 17.500058 L 24.999982 17.500058 M 27.000044 17.500058 L 33.000054 17.500058 M 3.999947 18.5 L 6.00001 18.5 M 8.000073 18.5 L 9.000015 18.5 M 11.000077 18.5 L 12.00002 18.5 M 12.999962 18.5 L 17.000087 18.5 M 18.999972 18.5 L 19.999914 18.5 M 21.000034 18.5 L 21.999977 18.5 M 24.000039 18.5 L 27.999987 18.5 M 28.999929 18.5 L 30.999991 18.5 M 33.999996 18.5 L 34.999939 18.5 M 3.999947 19.499942 L 5.000068 19.499942 M 6.00001 19.499942 L 6.999952 19.499942 M 9.000015 19.499942 L 9.999957 19.499942 M 11.000077 19.499942 L 12.00002 19.499942 M 12.999962 19.499942 L 14.000082 19.499942 M 15.000025 19.499942 L 15.999967 19.499942 M 18.00003 19.499942 L 24.000039 19.499942 M 24.999982 19.499942 L 30.000049 19.499942 M 30.999991 19.499942 L 33.000054 19.499942 M 33.999996 19.499942 L 34.999939 19.499942 M 2.000063 20.500063 L 3.000005 20.500063 M 3.999947 20.500063 L 5.000068 20.500063 M 8.000073 20.500063 L 9.000015 20.500063 M 11.000077 20.500063 L 12.999962 20.500063 M 15.000025 20.500063 L 19.999914 20.500063 M 27.000044 20.500063 L 30.999991 20.500063 M 31.999934 20.500063 L 33.999996 20.500063 M 2.000063 21.500005 L 3.999947 21.500005 M 9.000015 21.500005 L 11.000077 21.500005 M 12.00002 21.500005 L 12.999962 21.500005 M 14.000082 21.500005 L 18.00003 21.500005 M 18.999972 21.500005 L 25.999924 21.500005 M 27.000044 21.500005 L 33.000054 21.500005 M 33.999996 21.500005 L 34.999939 21.500005 M 3.000005 22.499947 L 12.00002 22.499947 M 15.000025 22.499947 L 15.999967 22.499947 M 18.00003 22.499947 L 18.999972 22.499947 M 21.000034 22.499947 L 21.999977 22.499947 M 25.999924 22.499947 L 27.999987 22.499947 M 28.999929 22.499947 L 31.999934 22.499947 M 33.000054 22.499947 L 34.999939 22.499947 M 2.000063 23.500068 L 5.000068 23.500068 M 6.999952 23.500068 L 8.000073 23.500068 M 9.999957 23.500068 L 12.00002 23.500068 M 15.000025 23.500068 L 18.00003 23.500068 M 19.999914 23.500068 L 22.999919 23.500068 M 24.999982 23.500068 L 25.999924 23.500068 M 27.999987 23.500068 L 28.999929 23.500068 M 30.999991 23.500068 L 31.999934 23.500068 M 33.999996 23.500068 L 34.999939 23.500068 M 2.000063 24.50001 L 3.000005 24.50001 M 3.999947 24.50001 L 5.000068 24.50001 M 6.00001 24.50001 L 12.999962 24.50001 M 17.000087 24.50001 L 18.999972 24.50001 M 19.999914 24.50001 L 21.000034 24.50001 M 24.000039 24.50001 L 24.999982 24.50001 M 27.000044 24.50001 L 27.999987 24.50001 M 30.000049 24.50001 L 33.999996 24.50001 M 2.000063 25.499952 L 3.000005 25.499952 M 5.000068 25.499952 L 6.00001 25.499952 M 12.00002 25.499952 L 15.999967 25.499952 M 17.000087 25.499952 L 18.00003 25.499952 M 21.999977 25.499952 L 24.000039 25.499952 M 27.000044 25.499952 L 28.999929 25.499952 M 30.000049 25.499952 L 30.999991 25.499952 M 31.999934 25.499952 L 33.000054 25.499952 M 2.000063 26.500073 L 3.000005 26.500073 M 3.999947 26.500073 L 6.00001 26.500073 M 6.999952 26.500073 L 9.000015 26.500073 M 9.999957 26.500073 L 11.000077 26.500073 M 12.999962 26.500073 L 14.000082 26.500073 M 15.000025 26.500073 L 15.999967 26.500073 M 17.000087 26.500073 L 18.00003 26.500073 M 18.999972 26.500073 L 19.999914 26.500073 M 24.000039 26.500073 L 24.999982 26.500073 M 25.999924 26.500073 L 30.999991 26.500073 M 33.000054 26.500073 L 33.999996 26.500073 M 9.999957 27.500015 L 12.999962 27.500015 M 14.000082 27.500015 L 15.000025 27.500015 M 15.999967 27.500015 L 17.000087 27.500015 M 18.00003 27.500015 L 18.999972 27.500015 M 19.999914 27.500015 L 22.999919 27.500015 M 24.999982 27.500015 L 27.000044 27.500015 M 30.000049 27.500015 L 30.999991 27.500015 M 31.999934 27.500015 L 33.000054 27.500015 M 33.999996 27.500015 L 34.999939 27.500015 M 2.000063 28.499957 L 9.000015 28.499957 M 11.000077 28.499957 L 12.999962 28.499957 M 14.000082 28.499957 L 15.000025 28.499957 M 17.000087 28.499957 L 18.00003 28.499957 M 19.999914 28.499957 L 21.000034 28.499957 M 21.999977 28.499957 L 22.999919 28.499957 M 24.000039 28.499957 L 27.000044 28.499957 M 27.999987 28.499957 L 28.999929 28.499957 M 30.000049 28.499957 L 30.999991 28.499957 M 31.999934 28.499957 L 33.000054 28.499957 M 2.000063 29.500077 L 3.000005 29.500077 M 8.000073 29.500077 L 9.000015 29.500077 M 9.999957 29.500077 L 11.000077 29.500077 M 12.999962 29.500077 L 18.999972 29.500077 M 22.999919 29.500077 L 24.000039 29.500077 M 24.999982 29.500077 L 27.000044 29.500077 M 30.000049 29.500077 L 33.999996 29.500077 M 2.000063 30.50002 L 3.000005 30.50002 M 3.999947 30.50002 L 6.999952 30.50002 M 8.000073 30.50002 L 9.000015 30.50002 M 9.999957 30.50002 L 11.000077 30.50002 M 14.000082 30.50002 L 15.000025 30.50002 M 15.999967 30.50002 L 17.000087 30.50002 M 19.999914 30.50002 L 21.000034 30.50002 M 21.999977 30.50002 L 22.999919 30.50002 M 24.000039 30.50002 L 24.999982 30.50002 M 25.999924 30.50002 L 31.999934 30.50002 M 33.000054 30.50002 L 33.999996 30.50002 M 2.000063 31.499962 L 3.000005 31.499962 M 3.999947 31.499962 L 6.999952 31.499962 M 8.000073 31.499962 L 9.000015 31.499962 M 9.999957 31.499962 L 12.00002 31.499962 M 14.000082 31.499962 L 15.999967 31.499962 M 17.000087 31.499962 L 19.999914 31.499962 M 21.000034 31.499962 L 22.999919 31.499962 M 24.999982 31.499962 L 25.999924 31.499962 M 27.000044 31.499962 L 27.999987 31.499962 M 30.000049 31.499962 L 31.999934 31.499962 M 33.000054 31.499962 L 34.999939 31.499962 M 2.000063 32.500082 L 3.000005 32.500082 M 3.999947 32.500082 L 6.999952 32.500082 M 8.000073 32.500082 L 9.000015 32.500082 M 9.999957 32.500082 L 11.000077 32.500082 M 12.00002 32.500082 L 17.000087 32.500082 M 22.999919 32.500082 L 24.000039 32.500082 M 24.999982 32.500082 L 30.000049 32.500082 M 30.999991 32.500082 L 31.999934 32.500082 M 2.000063 33.500025 L 3.000005 33.500025 M 8.000073 33.500025 L 9.000015 33.500025 M 18.00003 33.500025 L 18.999972 33.500025 M 19.999914 33.500025 L 21.000034 33.500025 M 22.999919 33.500025 L 24.000039 33.500025 M 27.000044 33.500025 L 28.999929 33.500025 M 30.000049 33.500025 L 33.000054 33.500025 M 2.000063 34.499967 L 9.000015 34.499967 M 9.999957 34.499967 L 12.00002 34.499967 M 15.000025 34.499967 L 15.999967 34.499967 M 18.999972 34.499967 L 19.999914 34.499967 M 21.000034 34.499967 L 21.999977 34.499967 M 24.000039 34.499967 L 27.999987 34.499967 M 28.999929 34.499967 L 30.000049 34.499967 M 33.000054 34.499967 L 33.999996 34.499967 " stroke="#000000" stroke-width="1" stroke-opacity="1" stroke-miterlimit="4"/></svg>